PathFileType	4	(X/Y/Z)	/Users/visionmauri/Downloads/Videos/OAW13-top_Sports2D/OAW13-top_Sports2D_px_person00.trc
DataRate	CameraRate	NumFrames	NumMarkers	Units	OrigDataRate	OrigDataStartFrame	OrigNumFrames
27.0	27.0	13	22	m	27.0	247	1977
Frame#	Time	Hip			RHip			RKnee			RAnkle			RBigToe			RSmallToe			RHeel			LHip			LKnee			LAnkle			LBigToe			LSmallToe			LHeel			Neck			Head			Nose			RShoulder			RElbow			RWrist			LShoulder			LElbow			LWrist			
		X1	Y1	Z1	X2	Y2	Z2	X3	Y3	Z3	X4	Y4	Z4	X5	Y5	Z5	X6	Y6	Z6	X7	Y7	Z7	X8	Y8	Z8	X9	Y9	Z9	X10	Y10	Z10	X11	Y11	Z11	X12	Y12	Z12	X13	Y13	Z13	X14	Y14	Z14	X15	Y15	Z15	X16	Y16	Z16	X17	Y17	Z17	X18	Y18	Z18	X19	Y19	Z19	X20	Y20	Z20	X21	Y21	Z21	X22	Y22	Z22
247	9.152777777777779	540.0529355638625	742.125328681478	0.0	525.18286225825	744.6136393053775	0.0	521.8887750845444	799.1196937341954	0.0	520.1800832021222	849.9974669086208	0.0	523.7426225351777	868.8910435423519	0.0	514.3609945119752	867.694659208366	0.0	520.9961738817333	858.2388620952545	0.0	555.4210743508038	746.3197847860506	0.0	553.4934469120664	800.9012789207128	0.0	542.9594180524103	849.3194221937932	0.0	537.8776734021659	868.7529557437714	0.0	546.0627430342481	868.1229704092749	0.0	539.1747528818213	857.2738393301947	0.0	549.7718829522454	661.0744113451605	0.0	553.733594812185	625.3074572980903	0.0	552.4695084704493	657.5744210924698	0.0	520.3549938968288	667.4992220665831	0.0	495.9896700734115	696.1110918563255	0.0	485.3614261405388	730.7536106794973	0.0	574.6471750109713	670.1513925538177	0.0	580.0444986446577	714.4897978256917	0.0	581.526791391915	754.7189434849486	0.0
248	9.189833558254612	539.6543409609634	742.5685606979745	0.0	524.778054680036	744.5707918918827	0.0	521.8475364396527	799.4017206902244	0.0	520.9049734226517	851.4334393034571	0.0	525.1750746374396	871.1588596620728	0.0	515.5898662426861	870.0416820072855	0.0	521.5403790976483	859.6387401662472	0.0	554.9509322526616	746.337451276332	0.0	553.669733178712	801.521389686087	0.0	542.7505442900251	849.6310748057552	0.0	538.0826575746319	868.9772673373049	0.0	545.9754166973707	868.1949423035469	0.0	538.8935893732789	857.6094703991895	0.0	549.943793759344	661.8564892354617	0.0	553.9368312478409	626.5779757597926	0.0	552.430143155947	659.6643392104859	0.0	520.2725867766184	667.9115077206803	0.0	494.35178635968373	694.0352621106538	0.0	482.9971003850146	728.5937766577391	0.0	574.3033804111674	670.5689624544772	0.0	579.9958499860214	714.7551853824008	0.0	581.5077722353744	754.8108775664022	0.0
249	9.226889338731445	539.0949543375118	743.2395578204811	0.0	524.5254767442016	745.4471861852991	0.0	522.2064317238394	799.6419131474063	0.0	522.3580318024593	853.2890222287782	0.0	526.9228270266443	872.9159811277656	0.0	517.6129113178678	872.042509438731	0.0	522.6886096699174	861.8154378208594	0.0	554.1747137987292	747.1341755043668	0.0	553.2349609731396	802.3851175206105	0.0	542.5817965049201	849.816658255607	0.0	538.5476571657798	869.0938082038545	0.0	545.9457286686423	868.2416911218697	0.0	538.768525818131	858.2609299141809	0.0	549.6084118038508	662.8288931923968	0.0	553.4485072591044	627.5639329297561	0.0	552.300861982382	660.3614233525785	0.0	519.7754851589632	668.5111086134382	0.0	492.70956506106097	691.6835419780781	0.0	481.2435918350974	726.2997975486496	0.0	574.184508972149	671.136402500926	0.0	579.9374250232298	714.8503609082238	0.0	581.3105279389746	754.2771500585716	0.0
250	9.263945119208278	538.7778110439898	743.9739571549592	0.0	524.5203462238502	746.5653942177908	0.0	522.9378254964547	800.1133846444603	0.0	524.2709640443759	854.832799297326	0.0	528.9123192116443	873.7870722904294	0.0	519.8082686688382	873.2462059295776	0.0	524.1120471277488	863.7838747034293	0.0	553.8320465746481	748.2924643994586	0.0	552.5746423548007	803.3393475911456	0.0	542.4901700224027	850.0622243511887	0.0	539.1644523291139	869.1968330363014	0.0	546.0780012168666	868.3929710457311	0.0	539.1377411151705	858.951502020566	0.0	549.019357948109	663.3686517624456	0.0	552.6610005630785	627.9646540959544	0.0	552.1652520322399	660.0244104284911	0.0	518.8062425114158	668.9297738791963	0.0	491.72630446903156	689.7130431183793	0.0	480.03379000436155	723.7006645269694	0.0	574.2902234820573	671.7085569346094	0.0	579.945821624268	714.4204055679835	0.0	580.6049641195647	752.7025011635475	0.0
251	9.30100089968511	538.8504675006611	744.4944197629216	0.0	524.7741663482203	747.0522491718983	0.0	523.8680465398584	800.6642571814135	0.0	525.9866257389499	855.2892149068902	0.0	530.9336587631348	873.983621108205	0.0	521.4976681200185	873.7622089693764	0.0	525.2950792625404	864.6380339571432	0.0	553.9867035826177	749.0322031651926	0.0	551.9685929676591	804.2330377889501	0.0	542.4632229382962	850.5803182362599	0.0	539.5543843293486	869.6158064030355	0.0	546.303730807767	868.802788223905	0.0	539.9510596729281	859.5968682679542	0.0	548.4237857764917	663.3363427438334	0.0	551.9160819102723	626.9194045462527	0.0	551.915807081539	658.8088619527708	0.0	517.7494083631965	668.9768105772035	0.0	491.52979847876367	688.3721720034835	0.0	479.0463777463638	721.2374309657604	0.0	574.12619950782	671.9425593377343	0.0	580.0517697439615	713.3209455399535	0.0	579.5371963278055	750.0577286690908	0.0
252	9.338056680161944	539.0838235736875	744.7642028553277	0.0	525.1500844407963	746.9376161488143	0.0	525.0020793802238	800.7245786913986	0.0	527.3590065115427	855.3222974003876	0.0	532.6183227431834	874.4052901598064	0.0	522.828255618613	874.4468461645407	0.0	526.3116089883267	865.1452963277443	0.0	553.9600019414164	749.090530013598	0.0	551.3497829147332	804.5744411673078	0.0	542.6014480739672	851.2414741388429	0.0	539.5840474026697	870.2430560700828	0.0	546.4834818165747	869.340346981619	0.0	540.8180786646416	860.5481806261198	0.0	547.6440811104821	663.2093413081271	0.0	551.2775088616336	625.2047568684005	0.0	551.2967723982192	657.0822920473898	0.0	516.9785212404998	668.6703851385307	0.0	491.41686839534367	687.1576565467819	0.0	478.19752600027306	719.5109059366478	0.0	573.7052432530018	671.636823818377	0.0	580.3917604117892	711.8898590157639	0.0	578.5441684560843	746.9964947400433	0.0
253	9.375112460638777	539.2758429916272	744.9296956980585	0.0	525.4298383765203	746.8319439515925	0.0	526.1322117912454	800.5603093855551	0.0	528.4609795665674	856.160147209862	0.0	533.7193620607278	875.5303460680508	0.0	524.1045347930391	875.8172418802843	0.0	527.4083307684397	866.4232772407082	0.0	553.5244743740843	748.8728899799914	0.0	550.8874974220146	804.3367686979785	0.0	542.8849269897511	851.7990232227596	0.0	539.4937332874415	870.8452107970289	0.0	546.5438052784422	869.7902572036064	0.0	541.4097014210253	861.8605760939639	0.0	546.5657768208561	663.0579066051112	0.0	550.509770939842	624.5253012696113	0.0	550.271142767905	655.7040236800949	0.0	516.4758253713386	668.2497652472327	0.0	490.70791734867083	686.2387510809905	0.0	477.69008258807105	718.9518993974889	0.0	573.2233426046994	671.0180595677438	0.0	580.9472403596383	710.5401123967756	0.0	577.800183528527	744.1238896272184	0.0
254	9.41216824111561	539.410057398552	745.0147636022842	0.0	525.6647040472383	747.1583293783754	0.0	526.766196300338	801.2284448577448	0.0	529.0582898490263	857.6999190466809	0.0	534.2840222923077	876.982178314912	0.0	524.996684364756	877.368719592517	0.0	528.2658874946384	868.0963590934899	0.0	553.2096768129791	748.9455126123472	0.0	550.8293441681559	804.3933964488256	0.0	543.0101838794766	851.8055227840562	0.0	539.4818976634635	871.4033175491089	0.0	546.4946584324932	870.0945051501238	0.0	541.5596968717285	862.3949602317078	0.0	545.5866352175601	662.6426356663682	0.0	549.3401057234129	624.89239876706	0.0	549.262888606782	654.8401935700127	0.0	515.889605104278	668.0318264249829	0.0	489.803667247365	686.852028637082	0.0	477.8099636955307	719.5633392359239	0.0	572.5317583849875	670.581144649889	0.0	581.5013102916109	709.5990500356654	0.0	577.3026169488516	741.7133021192566	0.0
255	9.449224021592443	539.4698448563577	744.9826915726743	0.0	525.9888071655212	747.7639301442562	0.0	526.7787576425268	802.7410797572322	0.0	529.066530836371	858.9643941940765	0.0	534.4486540193859	878.1987052863541	0.0	525.1620467006808	878.2964281586213	0.0	528.5569034194248	869.0493217191107	0.0	553.2615308955559	749.3504918257413	0.0	551.0128488855389	805.0899662819893	0.0	542.8297854996594	851.2009940033746	0.0	539.5044733860021	871.7767745415199	0.0	546.4501277997495	870.1272462946998	0.0	541.261011538777	861.3294813871955	0.0	544.920233275343	662.1753624967554	0.0	547.9214206778865	625.3090482481844	0.0	548.5089684853116	654.4071377642442	0.0	515.0847749868632	667.9805260463739	0.0	489.7188525855026	689.3333814804224	0.0	478.5230322191788	721.2645848300627	0.0	571.5500485539868	670.4655301766621	0.0	582.0655126477563	709.2201537375092	0.0	577.1076230866482	739.9213107938414	0.0
256	9.486279802069276	539.4376387986672	745.129771110653	0.0	526.1259221809551	748.2373284463191	0.0	526.5766528996904	803.5853369329905	0.0	528.8726692208339	859.4948286246149	0.0	534.3859134173327	878.9037893197885	0.0	525.0096114624358	878.4013705853826	0.0	528.4501658018638	869.1047562418046	0.0	553.3786910835383	749.6123405742702	0.0	551.1776211343216	805.6761405580827	0.0	542.5747726970483	850.6444347079063	0.0	539.432132021549	871.8828102828421	0.0	546.4548311115162	869.8704714531085	0.0	540.7170918636735	860.0039542274005	0.0	544.1729424220547	661.9595960561145	0.0	546.6675512790123	625.708748864093	0.0	547.5226340714512	654.581131117441	0.0	514.4608139258305	667.8525015537313	0.0	490.42834735799784	692.5911950381313	0.0	479.3457625691391	724.2645946652399	0.0	570.5930122199359	670.1811748684507	0.0	582.7964954875333	708.995147707668	0.0	577.1384906275847	738.5716232965798	0.0
257	9.52333558254611	539.3609183072225	745.8843893850019	0.0	525.750773289636	748.6426197139674	0.0	526.4806409991293	803.2588460278166	0.0	528.8412474270675	859.5974117209212	0.0	534.2777956745074	879.2399702426767	0.0	525.0495827474632	878.2047200226789	0.0	528.2549833624859	869.1252670261796	0.0	553.4054481571192	749.743486988387	0.0	551.3578701436022	805.7345215187872	0.0	542.4649031354929	850.4097446524069	0.0	539.32300275216	871.8898791595869	0.0	546.3917133596653	869.6572912681298	0.0	540.2497131124439	859.796047357716	0.0	543.0913034663257	661.9023154849235	0.0	545.6150681404421	626.2780594794818	0.0	545.9159441942951	654.8092332432632	0.0	514.1494593086285	667.9133263668725	0.0	491.08527212041633	696.0218982472582	0.0	480.0090886128512	728.483935319376	0.0	570.0062873579496	669.5496258616024	0.0	583.5691040195491	708.5526396658217	0.0	577.1903053128377	737.4859771127482	0.0
258	9.560391363022942	539.2003170018097	746.9481280856888	0.0	525.09482785621	749.3757867654767	0.0	526.4260428497486	803.2800846342035	0.0	528.9372463082341	859.8060123184173	0.0	534.2835519705545	879.4133350359513	0.0	525.1545266911496	878.3660063868205	0.0	528.2100823110792	869.6749195187174	0.0	553.4697214684056	750.2451133271735	0.0	551.6332044253643	805.6579063825336	0.0	542.4778063781619	850.0212186892106	0.0	539.4350553030996	871.8186795014311	0.0	546.1768664476693	869.637582040909	0.0	540.1178178003448	859.9731934399574	0.0	542.0591022598384	661.8115732887769	0.0	544.5303939704636	626.4751909772842	0.0	544.2050994541124	654.3818580558919	0.0	513.7534580792988	668.519055159235	0.0	491.68040038218953	699.7943457426716	0.0	480.90221804330344	733.212581335212	0.0	569.72402577313	669.0808549030528	0.0	584.1776430860303	708.2065034635932	0.0	577.1778036741656	737.1164821343228	0.0
259	9.597447143499776	538.89643688831	747.4422427830644	0.0	524.5917298186429	750.2466948985171	0.0	526.2133391117134	804.4385696473612	0.0	528.8809173503828	860.2339947664263	0.0	534.3798694321464	879.420124380074	0.0	525.1034157521206	878.9677336419263	0.0	528.2489208645827	870.2830367037814	0.0	553.519323865729	750.7344619247998	0.0	551.8977096035941	805.6912882242216	0.0	542.5353000622929	849.3314867511699	0.0	539.839722281085	871.6102747176592	0.0	545.9681474703252	869.6043804184371	0.0	540.372283562669	859.7026950066407	0.0	541.3977674784842	661.8147425545941	0.0	543.397474492479	625.6595990097995	0.0	542.9407630724282	653.7022069678504	0.0	513.2470702144104	669.1391132021105	0.0	492.8153084486274	703.49197129749	0.0	482.45151783074675	737.9484160891299	0.0	569.3367804808121	669.0136622738673	0.0	584.5812175386646	708.1211635726677	0.0	577.2628764677606	737.9271713484317	0.0
